# xmcd
#
# Track frame offsets:
#	150
#	12821
#	28025
#	40583
#	53443
#	64738
#	83639
#	98102
#	113067
#	126267
#	143320
#	154778
#
# Disc length: 2245 seconds
# Revision: 0
# Processed by: cddbd v1.5.2PL0 Copyright (c) Steve Scherf et al.
# Submitted via: dBpowerAMP V12.0
#
DISCID=8508c30c
DTITLE=Sweet Potato Pie - Patches of Blue
DYEAR=2006
DGENRE=Country
TTITLE0=Arizona
TTITLE1=Katelyn Grey
TTITLE2=Crazy
TTITLE3=Knock
TTITLE4=Beaumont Rag
TTITLE5=Keep A Watch
TTITLE6=Cowboy Man
TTITLE7=Stars In My Crown
TTITLE8=Tennessee Waltz
TTITLE9=Merry-Go-Round
TTITLE10=Penny's Banjo
TTITLE11=Cowboy's Sweetheart
EXTD=
EXTT0=
EXTT1=
EXTT2=
EXTT3=
EXTT4=
EXTT5=
EXTT6=
EXTT7=
EXTT8=
EXTT9=
EXTT10=
EXTT11=
PLAYORDER=
